<mxfile host="app.diagrams.net" modified="2024-03-25T12:05:14.021Z" agent="Mozilla/5.0 (Windows NT 10.0; Win64; x64) AppleWebKit/537.36 (KHTML, like Gecko) Chrome/122.0.0.0 Safari/537.36 Edg/122.0.0.0" etag="XaWoMFBj-27xZNsWW-uV" version="24.1.0" type="github">
  <diagram id="6a731a19-8d31-9384-78a2-239565b7b9f0" name="Page-1">
    <mxGraphModel dx="1113" dy="792" grid="1" gridSize="10" guides="1" tooltips="1" connect="1" arrows="1" fold="1" page="1" pageScale="1" pageWidth="1169" pageHeight="827" background="none" math="0" shadow="0">
      <root>
        <mxCell id="0" />
        <mxCell id="1" parent="0" />
        <mxCell id="HjFKRSdiYvEhEO2Qcr20-55" value="" style="ellipse;whiteSpace=wrap;html=1;aspect=fixed;fillColor=#050505;strokeWidth=2;" vertex="1" parent="1">
          <mxGeometry x="20" y="400" width="30" height="30" as="geometry" />
        </mxCell>
        <mxCell id="HjFKRSdiYvEhEO2Qcr20-96" style="edgeStyle=orthogonalEdgeStyle;rounded=0;orthogonalLoop=1;jettySize=auto;html=1;exitX=1;exitY=0.5;exitDx=0;exitDy=0;entryX=0;entryY=0.5;entryDx=0;entryDy=0;" edge="1" parent="1" source="HjFKRSdiYvEhEO2Qcr20-56" target="HjFKRSdiYvEhEO2Qcr20-67">
          <mxGeometry relative="1" as="geometry" />
        </mxCell>
        <mxCell id="HjFKRSdiYvEhEO2Qcr20-56" value="&lt;font style=&quot;font-size: 20px;&quot;&gt;用户是否登录&lt;/font&gt;" style="rhombus;whiteSpace=wrap;html=1;strokeWidth=2;" vertex="1" parent="1">
          <mxGeometry x="90" y="375" width="220" height="80" as="geometry" />
        </mxCell>
        <mxCell id="HjFKRSdiYvEhEO2Qcr20-57" value="" style="group;strokeWidth=2;" vertex="1" connectable="0" parent="1">
          <mxGeometry x="140" y="510" width="120" height="60" as="geometry" />
        </mxCell>
        <mxCell id="HjFKRSdiYvEhEO2Qcr20-58" value="&lt;font style=&quot;font-size: 20px;&quot;&gt;用户登录&lt;/font&gt;" style="rounded=0;whiteSpace=wrap;html=1;strokeWidth=2;" vertex="1" parent="HjFKRSdiYvEhEO2Qcr20-57">
          <mxGeometry width="120" height="60" as="geometry" />
        </mxCell>
        <mxCell id="HjFKRSdiYvEhEO2Qcr20-59" value="" style="endArrow=classic;html=1;rounded=0;entryX=0.5;entryY=0;entryDx=0;entryDy=0;strokeWidth=2;" edge="1" parent="1" target="HjFKRSdiYvEhEO2Qcr20-58">
          <mxGeometry width="50" height="50" relative="1" as="geometry">
            <mxPoint x="199.47" y="460" as="sourcePoint" />
            <mxPoint x="539.47" y="620" as="targetPoint" />
          </mxGeometry>
        </mxCell>
        <mxCell id="HjFKRSdiYvEhEO2Qcr20-60" value="&lt;font style=&quot;font-size: 20px;&quot;&gt;否&lt;/font&gt;" style="text;html=1;align=center;verticalAlign=middle;whiteSpace=wrap;rounded=0;strokeWidth=2;" vertex="1" parent="1">
          <mxGeometry x="189.47" y="460" width="60" height="30" as="geometry" />
        </mxCell>
        <mxCell id="HjFKRSdiYvEhEO2Qcr20-61" value="" style="endArrow=classic;html=1;rounded=0;exitX=1;exitY=0.5;exitDx=0;exitDy=0;entryX=0;entryY=0.5;entryDx=0;entryDy=0;strokeWidth=2;" edge="1" parent="1" source="HjFKRSdiYvEhEO2Qcr20-55" target="HjFKRSdiYvEhEO2Qcr20-56">
          <mxGeometry width="50" height="50" relative="1" as="geometry">
            <mxPoint x="360" y="570" as="sourcePoint" />
            <mxPoint x="410" y="520" as="targetPoint" />
          </mxGeometry>
        </mxCell>
        <mxCell id="HjFKRSdiYvEhEO2Qcr20-62" value="" style="group;strokeWidth=2;" vertex="1" connectable="0" parent="1">
          <mxGeometry x="330" y="220" width="160" height="60" as="geometry" />
        </mxCell>
        <mxCell id="HjFKRSdiYvEhEO2Qcr20-63" value="&lt;font style=&quot;font-size: 20px;&quot;&gt;主页混合检索&lt;/font&gt;" style="rounded=0;whiteSpace=wrap;html=1;strokeWidth=2;" vertex="1" parent="HjFKRSdiYvEhEO2Qcr20-62">
          <mxGeometry width="160" height="60" as="geometry" />
        </mxCell>
        <mxCell id="HjFKRSdiYvEhEO2Qcr20-64" value="" style="group;strokeWidth=2;" vertex="1" connectable="0" parent="1">
          <mxGeometry x="560" y="200" width="160" height="60" as="geometry" />
        </mxCell>
        <mxCell id="HjFKRSdiYvEhEO2Qcr20-65" value="&lt;font style=&quot;font-size: 20px;&quot;&gt;进入专家库&lt;/font&gt;" style="rounded=0;whiteSpace=wrap;html=1;strokeWidth=2;" vertex="1" parent="HjFKRSdiYvEhEO2Qcr20-64">
          <mxGeometry width="130" height="60" as="geometry" />
        </mxCell>
        <mxCell id="HjFKRSdiYvEhEO2Qcr20-66" value="" style="group;strokeWidth=2;" vertex="1" connectable="0" parent="1">
          <mxGeometry x="560" y="384" width="160" height="60" as="geometry" />
        </mxCell>
        <mxCell id="HjFKRSdiYvEhEO2Qcr20-67" value="&lt;font style=&quot;font-size: 20px;&quot;&gt;进入企业库&lt;/font&gt;" style="rounded=0;whiteSpace=wrap;html=1;strokeWidth=2;" vertex="1" parent="HjFKRSdiYvEhEO2Qcr20-66">
          <mxGeometry width="130" height="60" as="geometry" />
        </mxCell>
        <mxCell id="HjFKRSdiYvEhEO2Qcr20-68" value="" style="group;strokeWidth=2;" vertex="1" connectable="0" parent="1">
          <mxGeometry x="560" y="560" width="160" height="60" as="geometry" />
        </mxCell>
        <mxCell id="HjFKRSdiYvEhEO2Qcr20-69" value="&lt;font style=&quot;font-size: 20px;&quot;&gt;进入成果库&lt;/font&gt;" style="rounded=0;whiteSpace=wrap;html=1;strokeWidth=2;" vertex="1" parent="HjFKRSdiYvEhEO2Qcr20-68">
          <mxGeometry width="130" height="60" as="geometry" />
        </mxCell>
        <mxCell id="HjFKRSdiYvEhEO2Qcr20-71" value="&lt;font style=&quot;font-size: 20px;&quot;&gt;是否输入关键字/使用检索条件&lt;/font&gt;" style="rhombus;whiteSpace=wrap;html=1;strokeWidth=2;" vertex="1" parent="1">
          <mxGeometry x="750" y="190" width="220" height="80" as="geometry" />
        </mxCell>
        <mxCell id="HjFKRSdiYvEhEO2Qcr20-72" value="&lt;font style=&quot;font-size: 20px;&quot;&gt;是否输入关键字/使用检索条件&lt;/font&gt;" style="rhombus;whiteSpace=wrap;html=1;strokeWidth=2;" vertex="1" parent="1">
          <mxGeometry x="760" y="374" width="220" height="80" as="geometry" />
        </mxCell>
        <mxCell id="HjFKRSdiYvEhEO2Qcr20-73" value="&lt;font style=&quot;font-size: 20px;&quot;&gt;是否输入关键字/使用检索条件&lt;/font&gt;" style="rhombus;whiteSpace=wrap;html=1;strokeWidth=2;" vertex="1" parent="1">
          <mxGeometry x="760" y="550" width="220" height="80" as="geometry" />
        </mxCell>
        <mxCell id="HjFKRSdiYvEhEO2Qcr20-74" value="" style="group;strokeWidth=2;" vertex="1" connectable="0" parent="1">
          <mxGeometry x="1040" y="200" width="160" height="60" as="geometry" />
        </mxCell>
        <mxCell id="HjFKRSdiYvEhEO2Qcr20-75" value="&lt;font style=&quot;font-size: 20px;&quot;&gt;筛选专家信息&lt;/font&gt;" style="rounded=0;whiteSpace=wrap;html=1;strokeWidth=2;" vertex="1" parent="HjFKRSdiYvEhEO2Qcr20-74">
          <mxGeometry width="130" height="60" as="geometry" />
        </mxCell>
        <mxCell id="HjFKRSdiYvEhEO2Qcr20-76" value="" style="group;strokeWidth=2;" vertex="1" connectable="0" parent="1">
          <mxGeometry x="1040" y="384" width="160" height="60" as="geometry" />
        </mxCell>
        <mxCell id="HjFKRSdiYvEhEO2Qcr20-77" value="&lt;font style=&quot;font-size: 20px;&quot;&gt;筛选企业信息&lt;/font&gt;" style="rounded=0;whiteSpace=wrap;html=1;strokeWidth=2;" vertex="1" parent="HjFKRSdiYvEhEO2Qcr20-76">
          <mxGeometry width="130" height="60" as="geometry" />
        </mxCell>
        <mxCell id="HjFKRSdiYvEhEO2Qcr20-78" value="" style="group;strokeWidth=2;" vertex="1" connectable="0" parent="1">
          <mxGeometry x="1040" y="560" width="160" height="60" as="geometry" />
        </mxCell>
        <mxCell id="HjFKRSdiYvEhEO2Qcr20-79" value="&lt;font style=&quot;font-size: 20px;&quot;&gt;筛选成果信息&lt;/font&gt;" style="rounded=0;whiteSpace=wrap;html=1;strokeWidth=2;" vertex="1" parent="HjFKRSdiYvEhEO2Qcr20-78">
          <mxGeometry width="130" height="60" as="geometry" />
        </mxCell>
        <mxCell id="HjFKRSdiYvEhEO2Qcr20-80" value="" style="group;strokeWidth=2;" vertex="1" connectable="0" parent="1">
          <mxGeometry x="1260" y="200" width="160" height="60" as="geometry" />
        </mxCell>
        <mxCell id="HjFKRSdiYvEhEO2Qcr20-81" value="&lt;font style=&quot;font-size: 20px;&quot;&gt;列表展示专家信息卡片&lt;/font&gt;" style="rounded=0;whiteSpace=wrap;html=1;strokeWidth=2;" vertex="1" parent="HjFKRSdiYvEhEO2Qcr20-80">
          <mxGeometry width="130" height="60" as="geometry" />
        </mxCell>
        <mxCell id="HjFKRSdiYvEhEO2Qcr20-82" value="" style="group;strokeWidth=2;" vertex="1" connectable="0" parent="1">
          <mxGeometry x="1260" y="384" width="160" height="60" as="geometry" />
        </mxCell>
        <mxCell id="HjFKRSdiYvEhEO2Qcr20-83" value="&lt;font style=&quot;font-size: 20px;&quot;&gt;列表展示企业信息卡片&lt;/font&gt;" style="rounded=0;whiteSpace=wrap;html=1;strokeWidth=2;" vertex="1" parent="HjFKRSdiYvEhEO2Qcr20-82">
          <mxGeometry width="130" height="60" as="geometry" />
        </mxCell>
        <mxCell id="HjFKRSdiYvEhEO2Qcr20-84" value="" style="group;strokeWidth=2;" vertex="1" connectable="0" parent="1">
          <mxGeometry x="1260" y="560" width="160" height="60" as="geometry" />
        </mxCell>
        <mxCell id="HjFKRSdiYvEhEO2Qcr20-85" value="&lt;font style=&quot;font-size: 20px;&quot;&gt;列表展示成果信息卡片&lt;/font&gt;" style="rounded=0;whiteSpace=wrap;html=1;strokeWidth=2;" vertex="1" parent="HjFKRSdiYvEhEO2Qcr20-84">
          <mxGeometry width="130" height="60" as="geometry" />
        </mxCell>
        <mxCell id="HjFKRSdiYvEhEO2Qcr20-90" value="" style="group;strokeWidth=2;" vertex="1" connectable="0" parent="1">
          <mxGeometry x="1520" y="200" width="160" height="60" as="geometry" />
        </mxCell>
        <mxCell id="HjFKRSdiYvEhEO2Qcr20-91" value="&lt;font style=&quot;font-size: 20px;&quot;&gt;展示专家详细内容&lt;/font&gt;" style="rounded=0;whiteSpace=wrap;html=1;strokeWidth=2;" vertex="1" parent="HjFKRSdiYvEhEO2Qcr20-90">
          <mxGeometry width="130" height="60" as="geometry" />
        </mxCell>
        <mxCell id="HjFKRSdiYvEhEO2Qcr20-92" value="" style="group;strokeWidth=2;" vertex="1" connectable="0" parent="1">
          <mxGeometry x="1520" y="384" width="160" height="60" as="geometry" />
        </mxCell>
        <mxCell id="HjFKRSdiYvEhEO2Qcr20-93" value="&lt;font style=&quot;font-size: 20px;&quot;&gt;展示企业详细内容&lt;/font&gt;" style="rounded=0;whiteSpace=wrap;html=1;strokeWidth=2;" vertex="1" parent="HjFKRSdiYvEhEO2Qcr20-92">
          <mxGeometry width="130" height="60" as="geometry" />
        </mxCell>
        <mxCell id="HjFKRSdiYvEhEO2Qcr20-94" value="" style="group;strokeWidth=2;" vertex="1" connectable="0" parent="1">
          <mxGeometry x="1520" y="560" width="160" height="60" as="geometry" />
        </mxCell>
        <mxCell id="HjFKRSdiYvEhEO2Qcr20-95" value="&lt;font style=&quot;font-size: 20px;&quot;&gt;展示成果详细内容&lt;/font&gt;" style="rounded=0;whiteSpace=wrap;html=1;strokeWidth=2;" vertex="1" parent="HjFKRSdiYvEhEO2Qcr20-94">
          <mxGeometry width="130" height="60" as="geometry" />
        </mxCell>
      </root>
    </mxGraphModel>
  </diagram>
</mxfile>
